<svg width="21" height="17" viewBox="0 0 21 17" fill="none" xmlns="http://www.w3.org/2000/svg">
<path d="M5.85069 11.6552C5.85069 11.6552 5.85068 11.6552 5.85067 11.6552L3.67992 3.15554C3.6612 3.08222 3.65184 3.04557 3.64125 3.0134C3.51406 2.62668 3.16514 2.35566 2.75897 2.32812C2.72518 2.32583 2.68735 2.32583 2.61168 2.32583H1.5946C1.18965 2.32583 0.861373 1.99755 0.861373 1.5926V1.5926C0.861373 1.18765 1.18965 0.859375 1.5946 0.859375L3.4725 0.859375C3.81323 0.859375 3.9836 0.859375 4.12986 0.905294C4.35881 0.977178 4.55428 1.129 4.68059 1.33305C4.76127 1.46339 4.80343 1.62846 4.88775 1.9586V1.9586C4.97212 2.28896 5.01431 2.45414 5.09506 2.58454C5.22147 2.78868 5.41711 2.94052 5.64623 3.01232C5.79259 3.05818 5.96308 3.05806 6.30404 3.05782L18.3911 3.04917C19.0643 3.04869 19.401 3.04845 19.6371 3.18841C19.8355 3.306 19.9871 3.48856 20.0663 3.70515C20.1606 3.96294 20.0987 4.29381 19.9747 4.95555L18.966 10.3416C18.8775 10.814 18.8333 11.0501 18.7108 11.2262C18.6073 11.375 18.4653 11.4929 18.3 11.5672C18.1044 11.6552 17.8641 11.6552 17.3835 11.6552L5.8507 11.6552C5.85069 11.6552 5.85069 11.6552 5.85069 11.6552V11.6552ZM7.61445 4.52334C6.90131 4.52385 6.54474 4.52411 6.30271 4.67446C6.09958 4.80064 5.94839 4.99544 5.87656 5.22353C5.79097 5.49529 5.87921 5.84078 6.05568 6.53174L6.68023 8.9772C6.79208 9.41512 6.848 9.63408 6.97204 9.79627C7.07692 9.93342 7.21552 10.0411 7.37435 10.1088C7.56219 10.1888 7.78818 10.1888 8.24016 10.1888L16.1662 10.1888C16.6468 10.1888 16.8871 10.1888 17.0827 10.1008C17.248 10.0265 17.39 9.90862 17.4935 9.75984C17.616 9.58374 17.6602 9.34755 17.7487 8.87518L18.2079 6.42328C18.3318 5.76154 18.3938 5.43066 18.2995 5.17288C18.2203 4.95629 18.0687 4.77373 17.8703 4.65614C17.6341 4.51618 17.2975 4.51642 16.6243 4.5169L7.61445 4.52334Z" fill="white"/>
<path d="M7.85852 16.9998C6.56543 16.9998 5.51342 15.9477 5.51342 14.6546C5.51342 13.3616 6.56543 12.3096 7.85852 12.3096L16.6939 12.3096C17.987 12.3096 19.0391 13.3616 19.0391 14.6546C19.0391 15.9477 17.9871 16.9998 16.6939 16.9998C15.4008 16.9998 14.3488 15.9477 14.3488 14.6546C14.3488 14.3441 14.4097 14.0475 14.5198 13.776L10.0327 13.776C10.1428 14.0475 10.2036 14.3441 10.2036 14.6546C10.2036 15.9477 9.15161 16.9998 7.85852 16.9998ZM15.8153 14.6546C15.8153 15.1392 16.2094 15.5333 16.6939 15.5333C17.1784 15.5333 17.5726 15.1392 17.5726 14.6546C17.5726 14.1702 17.1785 13.776 16.6939 13.776C16.2094 13.776 15.8153 14.1702 15.8153 14.6546ZM6.97985 14.6546C6.97985 15.1392 7.37401 15.5333 7.8585 15.5333C8.34299 15.5333 8.73714 15.1392 8.73714 14.6546C8.73714 14.1702 8.34299 13.776 7.8585 13.776C7.37401 13.776 6.97985 14.1702 6.97985 14.6546Z" fill="white"/>
</svg>
