<svg width="239" height="102" viewBox="0 0 239 102" fill="none" xmlns="http://www.w3.org/2000/svg">
<path fill-rule="evenodd" clip-rule="evenodd" d="M65.7138 95C65.2429 91.4 65 87.7284 65 84C65 37.6081 102.608 0 149 0C195.392 0 233 37.6081 233 84C233 87.7284 232.757 91.4 232.286 95H203.616C204.735 90.5301 205.329 85.8521 205.329 81.0353C205.329 49.3796 179.667 23.7176 148.012 23.7176C116.356 23.7176 90.6941 49.3796 90.6941 81.0353C90.6941 85.8521 91.2883 90.5301 92.4073 95H65.7138Z" fill="url(#paint0_linear_2048_183)"/>
<path d="M108.852 53.288C108.204 53.288 107.664 53.144 107.232 52.856C106.824 52.544 106.488 52.088 106.224 51.488L96.828 30.392C96.564 29.792 96.492 29.264 96.612 28.808C96.732 28.352 96.984 27.992 97.368 27.728C97.752 27.464 98.208 27.332 98.736 27.332C99.432 27.332 99.948 27.488 100.284 27.8C100.644 28.088 100.944 28.532 101.184 29.132L109.716 48.896H108.168L116.664 29.096C116.928 28.52 117.24 28.088 117.6 27.8C117.96 27.488 118.464 27.332 119.112 27.332C119.64 27.332 120.072 27.464 120.408 27.728C120.768 27.992 120.996 28.352 121.092 28.808C121.188 29.264 121.104 29.792 120.84 30.392L111.444 51.488C111.18 52.088 110.844 52.544 110.436 52.856C110.052 53.144 109.524 53.288 108.852 53.288ZM128.029 53.252C127.309 53.252 126.757 53.036 126.373 52.604C125.989 52.172 125.797 51.572 125.797 50.804V37.592C125.797 36.8 125.989 36.2 126.373 35.792C126.757 35.36 127.309 35.144 128.029 35.144C128.749 35.144 129.301 35.36 129.685 35.792C130.093 36.2 130.297 36.8 130.297 37.592V50.804C130.297 51.572 130.105 52.172 129.721 52.604C129.337 53.036 128.773 53.252 128.029 53.252ZM128.029 31.796C127.189 31.796 126.529 31.592 126.049 31.184C125.593 30.752 125.365 30.164 125.365 29.42C125.365 28.652 125.593 28.064 126.049 27.656C126.529 27.248 127.189 27.044 128.029 27.044C128.893 27.044 129.553 27.248 130.009 27.656C130.465 28.064 130.693 28.652 130.693 29.42C130.693 30.164 130.465 30.752 130.009 31.184C129.553 31.592 128.893 31.796 128.029 31.796ZM143.649 53.36C141.657 53.36 139.941 52.988 138.501 52.244C137.061 51.5 135.945 50.444 135.153 49.076C134.385 47.708 134.001 46.088 134.001 44.216C134.001 42.392 134.373 40.796 135.117 39.428C135.885 38.06 136.929 36.992 138.249 36.224C139.593 35.432 141.117 35.036 142.821 35.036C144.069 35.036 145.185 35.24 146.169 35.648C147.177 36.056 148.029 36.644 148.725 37.412C149.445 38.18 149.985 39.116 150.345 40.22C150.729 41.3 150.921 42.524 150.921 43.892C150.921 44.324 150.765 44.66 150.453 44.9C150.165 45.116 149.745 45.224 149.193 45.224H137.637V42.632H147.753L147.177 43.172C147.177 42.068 147.009 41.144 146.673 40.4C146.361 39.656 145.893 39.092 145.269 38.708C144.669 38.3 143.913 38.096 143.001 38.096C141.993 38.096 141.129 38.336 140.409 38.816C139.713 39.272 139.173 39.932 138.789 40.796C138.429 41.636 138.249 42.644 138.249 43.82V44.072C138.249 46.04 138.705 47.516 139.617 48.5C140.553 49.46 141.921 49.94 143.721 49.94C144.345 49.94 145.041 49.868 145.809 49.724C146.601 49.556 147.345 49.28 148.041 48.896C148.545 48.608 148.989 48.488 149.373 48.536C149.757 48.56 150.057 48.692 150.273 48.932C150.513 49.172 150.657 49.472 150.705 49.832C150.753 50.168 150.681 50.516 150.489 50.876C150.321 51.236 150.021 51.548 149.589 51.812C148.749 52.34 147.777 52.736 146.673 53C145.593 53.24 144.585 53.36 143.649 53.36ZM161.007 53.288C160.407 53.288 159.891 53.144 159.459 52.856C159.027 52.544 158.679 52.064 158.415 51.416L153.195 38.096C152.979 37.52 152.907 37.016 152.979 36.584C153.075 36.128 153.303 35.768 153.663 35.504C154.023 35.24 154.503 35.108 155.103 35.108C155.631 35.108 156.063 35.24 156.399 35.504C156.735 35.744 157.023 36.212 157.263 36.908L161.619 48.896H160.791L165.291 36.62C165.483 36.092 165.735 35.708 166.047 35.468C166.383 35.228 166.815 35.108 167.343 35.108C167.871 35.108 168.303 35.24 168.639 35.504C168.975 35.744 169.227 36.116 169.395 36.62L173.823 48.896H173.067L177.459 36.8C177.699 36.152 177.999 35.708 178.359 35.468C178.743 35.228 179.163 35.108 179.619 35.108C180.195 35.108 180.639 35.252 180.951 35.54C181.263 35.828 181.443 36.2 181.491 36.656C181.539 37.088 181.455 37.568 181.239 38.096L176.055 51.416C175.815 52.04 175.467 52.508 175.011 52.82C174.579 53.132 174.063 53.288 173.463 53.288C172.863 53.288 172.335 53.132 171.879 52.82C171.447 52.508 171.111 52.04 170.871 51.416L166.155 38.924H168.207L163.599 51.38C163.359 52.028 163.023 52.508 162.591 52.82C162.159 53.132 161.631 53.288 161.007 53.288Z" fill="#360FCD"/>
<path d="M115.683 91.36C114.387 91.36 113.043 91.192 111.651 90.856C110.259 90.52 109.047 90.016 108.015 89.344C107.535 89.032 107.211 88.672 107.043 88.264C106.875 87.856 106.827 87.472 106.899 87.112C106.995 86.728 107.175 86.404 107.439 86.14C107.727 85.876 108.075 85.72 108.483 85.672C108.915 85.624 109.383 85.732 109.887 85.996C110.871 86.524 111.819 86.908 112.731 87.148C113.643 87.364 114.579 87.472 115.539 87.472C116.595 87.472 117.483 87.328 118.203 87.04C118.923 86.752 119.463 86.32 119.823 85.744C120.207 85.168 120.399 84.472 120.399 83.656C120.399 82.456 119.991 81.568 119.175 80.992C118.383 80.392 117.219 80.092 115.683 80.092H113.379C112.707 80.092 112.191 79.924 111.831 79.588C111.495 79.252 111.327 78.784 111.327 78.184C111.327 77.584 111.495 77.116 111.831 76.78C112.191 76.444 112.707 76.276 113.379 76.276H115.251C116.163 76.276 116.943 76.132 117.591 75.844C118.239 75.532 118.743 75.1 119.103 74.548C119.463 73.996 119.643 73.324 119.643 72.532C119.643 71.428 119.271 70.588 118.527 70.012C117.807 69.436 116.751 69.148 115.359 69.148C114.471 69.148 113.631 69.256 112.839 69.472C112.071 69.664 111.219 70.036 110.283 70.588C109.851 70.852 109.431 70.96 109.023 70.912C108.639 70.864 108.315 70.708 108.051 70.444C107.787 70.18 107.607 69.868 107.511 69.508C107.415 69.124 107.439 68.74 107.583 68.356C107.727 67.948 108.027 67.6 108.483 67.312C109.515 66.64 110.655 66.136 111.903 65.8C113.151 65.44 114.435 65.26 115.755 65.26C117.507 65.26 119.007 65.536 120.255 66.088C121.503 66.616 122.451 67.384 123.099 68.392C123.771 69.376 124.107 70.576 124.107 71.992C124.107 73 123.915 73.924 123.531 74.764C123.147 75.58 122.607 76.276 121.911 76.852C121.215 77.428 120.375 77.836 119.391 78.076V77.644C121.119 77.932 122.463 78.652 123.423 79.804C124.383 80.932 124.863 82.348 124.863 84.052C124.863 85.54 124.491 86.836 123.747 87.94C123.003 89.044 121.947 89.896 120.579 90.496C119.211 91.072 117.579 91.36 115.683 91.36ZM138.709 91.36C136.621 91.36 134.833 90.868 133.345 89.884C131.881 88.876 130.765 87.436 129.997 85.564C129.229 83.692 128.845 81.424 128.845 78.76C128.845 76.6 129.085 74.692 129.565 73.036C130.069 71.356 130.789 69.94 131.725 68.788C132.661 67.636 133.801 66.76 135.145 66.16C136.513 65.56 138.049 65.26 139.753 65.26C140.809 65.26 141.877 65.428 142.957 65.764C144.061 66.076 145.093 66.556 146.053 67.204C146.437 67.444 146.689 67.756 146.809 68.14C146.929 68.524 146.941 68.908 146.845 69.292C146.773 69.652 146.605 69.976 146.341 70.264C146.101 70.528 145.789 70.696 145.405 70.768C145.021 70.816 144.601 70.708 144.145 70.444C143.329 69.964 142.561 69.628 141.841 69.436C141.121 69.244 140.401 69.148 139.681 69.148C138.289 69.148 137.113 69.472 136.153 70.12C135.193 70.768 134.461 71.74 133.957 73.036C133.477 74.332 133.237 75.952 133.237 77.896V80.596H132.805C132.997 79.372 133.393 78.328 133.993 77.464C134.617 76.576 135.409 75.904 136.369 75.448C137.329 74.968 138.397 74.728 139.573 74.728C141.037 74.728 142.333 75.076 143.461 75.772C144.589 76.468 145.477 77.428 146.125 78.652C146.773 79.876 147.097 81.28 147.097 82.864C147.097 84.496 146.737 85.96 146.017 87.256C145.321 88.528 144.337 89.536 143.065 90.28C141.817 91 140.365 91.36 138.709 91.36ZM138.457 87.688C139.321 87.688 140.077 87.496 140.725 87.112C141.397 86.728 141.913 86.188 142.273 85.492C142.633 84.772 142.813 83.956 142.813 83.044C142.813 82.108 142.633 81.292 142.273 80.596C141.913 79.9 141.397 79.36 140.725 78.976C140.077 78.568 139.321 78.364 138.457 78.364C137.593 78.364 136.837 78.568 136.189 78.976C135.541 79.36 135.025 79.9 134.641 80.596C134.281 81.292 134.101 82.108 134.101 83.044C134.101 83.956 134.281 84.772 134.641 85.492C135.025 86.188 135.541 86.728 136.189 87.112C136.837 87.496 137.593 87.688 138.457 87.688ZM159.359 91.36C156.359 91.36 154.067 90.232 152.483 87.976C150.899 85.696 150.107 82.456 150.107 78.256C150.107 75.424 150.455 73.048 151.151 71.128C151.871 69.184 152.915 67.72 154.283 66.736C155.675 65.752 157.367 65.26 159.359 65.26C162.383 65.26 164.675 66.364 166.235 68.572C167.819 70.78 168.611 73.996 168.611 78.22C168.611 81.028 168.251 83.416 167.531 85.384C166.835 87.328 165.803 88.816 164.435 89.848C163.067 90.856 161.375 91.36 159.359 91.36ZM159.359 87.58C160.991 87.58 162.191 86.824 162.959 85.312C163.751 83.8 164.147 81.436 164.147 78.22C164.147 75.004 163.751 72.676 162.959 71.236C162.191 69.772 160.991 69.04 159.359 69.04C157.751 69.04 156.551 69.772 155.759 71.236C154.967 72.676 154.571 75.004 154.571 78.22C154.571 81.436 154.967 83.8 155.759 85.312C156.551 86.824 157.751 87.58 159.359 87.58ZM176.985 76.384C175.905 76.384 174.933 76.144 174.069 75.664C173.229 75.16 172.557 74.488 172.053 73.648C171.573 72.808 171.333 71.86 171.333 70.804C171.333 69.748 171.573 68.812 172.053 67.996C172.557 67.156 173.229 66.496 174.069 66.016C174.933 65.512 175.905 65.26 176.985 65.26C178.065 65.26 179.025 65.5 179.865 65.98C180.705 66.46 181.365 67.12 181.845 67.96C182.349 68.8 182.601 69.748 182.601 70.804C182.601 71.86 182.349 72.82 181.845 73.684C181.365 74.524 180.705 75.184 179.865 75.664C179.025 76.144 178.065 76.384 176.985 76.384ZM176.985 73.828C177.825 73.828 178.509 73.54 179.037 72.964C179.565 72.388 179.829 71.668 179.829 70.804C179.829 69.964 179.565 69.256 179.037 68.68C178.509 68.104 177.825 67.816 176.985 67.816C176.145 67.816 175.449 68.104 174.897 68.68C174.369 69.256 174.105 69.964 174.105 70.804C174.105 71.668 174.369 72.388 174.897 72.964C175.449 73.54 176.145 73.828 176.985 73.828Z" fill="#3810CC"/>
<path d="M80.4996 80.6C76.8527 78.7639 73.0344 77.2902 69.0996 76.2C70.9202 69.2766 71.8939 62.1579 71.9996 55H89.9996C89.5806 64.3153 86.2589 73.2664 80.4996 80.6ZM68.7996 28.9C72.623 27.8507 76.3393 26.4445 79.8996 24.7C85.5509 31.6304 88.9988 40.0935 89.7996 49H71.8996C71.6566 42.2018 70.6161 35.4556 68.7996 28.9ZM59.9996 10.6C65.9181 12.6891 71.3341 15.9932 75.8996 20.3C73.0194 21.5666 70.0435 22.6032 66.9996 23.4C65.3321 18.8016 62.9715 14.4851 59.9996 10.6ZM47.9996 25.9V8.5C53.2996 10.1 57.9996 16.1 61.2996 24.6C56.9045 25.3612 52.459 25.7958 47.9996 25.9ZM26.5996 74.8C24.9714 68.3225 24.099 61.6782 23.9996 55H41.9996V73.1C36.8272 73.2269 31.6751 73.7956 26.5996 74.8ZM26.8996 30.2C31.8739 31.2202 36.9249 31.8223 41.9996 32V49H24.0996C24.3229 42.648 25.2622 36.3414 26.8996 30.2ZM41.9996 8.5V25.9C37.5378 25.7627 33.0922 25.2948 28.6996 24.5C31.9996 16 36.6996 10.1 41.9996 8.5ZM14.0996 20.3C18.6652 15.9932 24.0812 12.6891 29.9996 10.6C27.0277 14.4851 24.6671 18.8016 22.9996 23.4C19.9558 22.6032 16.9798 21.5666 14.0996 20.3ZM18.0996 49H0.199612C1.00041 40.0935 4.44833 31.6304 10.0996 24.7C13.6599 26.4445 17.3762 27.8507 21.1996 28.9C19.3831 35.4556 18.3427 42.2018 18.0996 49ZM20.9996 76.2C17.0648 77.2902 13.2465 78.7639 9.59961 80.6C3.84028 73.2664 0.518586 64.3153 0.0996094 55H17.9996C18.1379 62.162 19.1453 69.2808 20.9996 76.2ZM59.9996 95.4C63.1469 91.2512 65.6113 86.6262 67.2996 81.7C70.4873 82.5352 73.5984 83.6391 76.5996 85C71.8971 89.6436 66.2295 93.1944 59.9996 95.4ZM47.9996 97.5V79.1C52.5619 79.2212 57.1083 79.6892 61.5996 80.5C58.3996 89.5 53.4996 95.8 47.9996 97.5ZM65.8996 49H47.9996V32C53.0715 31.8553 58.1225 31.2866 63.0996 30.3C64.7296 36.4089 65.6688 42.6815 65.8996 49ZM41.9996 97.5C36.4996 95.8 31.5996 89.5 28.3996 80.5C32.8909 79.6892 37.4373 79.2212 41.9996 79.1V97.5ZM29.9996 95.4C23.7697 93.1944 18.1021 89.6436 13.3996 85C16.4008 83.6391 19.5119 82.5352 22.6996 81.7C24.3879 86.6262 26.8523 91.2512 29.9996 95.4ZM47.9996 55H65.9996C65.9003 61.6782 65.0278 68.3225 63.3996 74.8C58.3241 73.7956 53.172 73.2269 47.9996 73.1V55Z" fill="#3810CC"/>
<defs>
<linearGradient id="paint0_linear_2048_183" x1="229" y1="54" x2="115.5" y2="92" gradientUnits="userSpaceOnUse">
<stop stop-color="#1E00DA"/>
<stop offset="1" stop-color="#E00D00" stop-opacity="0"/>
</linearGradient>
</defs>
</svg>
