<svg width="26" height="20" viewBox="0 0 26 20" fill="none" xmlns="http://www.w3.org/2000/svg">
<path d="M24.5 10L20.5325 2.24875C20.3421 1.87389 20.0485 1.55841 19.6849 1.33781C19.3213 1.11721 18.9019 1.00022 18.474 1H7.526C7.0981 1.00022 6.67875 1.11721 6.3151 1.33781C5.95145 1.55841 5.65792 1.87389 5.4675 2.24875L1.5 10H24.5ZM24.5 10H17.6L15.3 13.375H10.7L8.40001 10H1.5H24.5ZM24.5 10V16.75C24.5 17.3467 24.2577 17.919 23.8263 18.341C23.395 18.7628 22.81 19 22.1999 19H3.80001C3.19 19 2.605 18.7628 2.17366 18.341C1.74233 17.919 1.5 17.3467 1.5 16.75V10H24.5Z" stroke="#FDFBFD" stroke-width="2" stroke-linecap="round" stroke-linejoin="round"/>
</svg>
