<svg width="23" height="20" viewBox="0 0 23 20" fill="none" xmlns="http://www.w3.org/2000/svg">
<path d="M15.1667 8.36453V2.34899C15.1667 1.73231 14.91 1.1389 14.4456 0.70839L12.6 0H10.4L8.55445 0.696754C8.09 1.1389 7.83333 1.73231 7.83333 2.34899V3.71034H2.94444C1.6 3.71034 0.5 4.75753 0.5 6.03743V17.6729C0.5 18.9528 1.6 20 2.94444 20H20.0556C21.4 20 22.5 18.9528 22.5 17.6729V10.6916C22.5 9.41172 21.4 8.36453 20.0556 8.36453H15.1667ZM5.38889 18.499H2.33333V15.3458H5.38889V18.499ZM5.38889 12.973H2.33333V10.6916H5.38889V12.973ZM5.38889 8.36453H2.33333V6.03743H5.38889V8.36453ZM12.7222 18.499H7.83333V15.3458H12.7222V18.499ZM12.7222 15.3458H7.83333V10.6916H12.7222V15.3458ZM12.7222 10.6916H7.83333V6.03743H12.7222V10.6916ZM12.7222 6.03743H10.2778V3.24325H12.7222V6.03743ZM20.0556 18.499H14.5556V15.3458H20.0556V18.499ZM20.0556 12.973H14.5556V10.6916H20.0556V12.973Z" fill="#FDFBFD"/>
</svg>
